cover



Format;Avi

File Size:612mb

Video: ID : 0
Format : MPEG-4 Visual
Format profile : Simple@L3
Format settings, BVOP : No
Format settings, QPel : No
Format settings, GMC : No warppoints
Format settings, Matrix : Default (H.263)
Codec ID : XVID
Codec ID/Hint : XviD
Duration : 1h 19mn
Bit rate : 943 Kbps
Width : 720 pixels
Height : 374 pixels
Display aspect ratio : 1.925
Frame rate : 25.000 fps
Color space : YUV
Chroma subsampling : 4:2:0
Bit depth : 8 bits
Scan type : Progressive
Bits/(Pixel*Frame) : 0.140
Stream size : 535 MiB (88%)
Writing library : XviD 1.2.1 (UTC 2008-12-04)

Audio: ID : 1
Format : MPEG Audio
Format version : Version 1
Format profile : Layer 3
Mode : Joint stereo
Mode extension : MS Stereo
Codec ID : 55
Codec ID/Hint : MP3
Duration : 1h 26mn
Bit rate mode : Constant
Bit rate : 128 Kbps
Channel(s) : 2 channels
Sampling rate : 48.0 KHz
Video delay : 500ms
Stream size : 72.7 MiB (12%)
Alignment : Split accross interleaves
Interleave, duration : 500 ms (12.50 video frames)
Interleave, preload duration : 500 ms

Duration:1:26


Release Notes:Video:Relizlab

Audio:Own/XBoxMySocks thanks man

Okay here we go with V3 lol this one is proper no cropping issues great video just lowered colors a bit and fixed some noise

Audio again is our own and many thanks to XBoxMySocks for the 5 minutes of missing audio we didn\'t have, no more versions from LKRG we are paranormal activitied out (:

Enjoy


Release Date:2010

Language:English

Plot: After experiencing what they think are a series of \"break-ins\", a family sets up security cameras around their home, only to realize that the events unfolding before them are more sinister than they seem.


Cast: Katie Featherston	 ... Katie
screens 
http://www.imdb.com/title/tt1536044/
